PathFileType	4	(X/Y/Z)	Kaydara																																																																																																																									
DataRate	CameraRate	NumFrames	NumMarkers	Units	OrigDataRate	OrigDataStartFrame	OrigNumFrames																																																																																																																					
30	30	4	41	mm	30	73	154																																																																																																																					
Frame#	Time	PAIB_LFHD			PAIB_RFHD			PAIB_LBHD			PAIB_RBHD			PAIB_LFTShould			PAIB_RFTShould			PAIB_LRRShould			PAIB_RRRShould			PAIB_T10			PAIB_STRN			PAIB_TRUN			PAIB_LSHO			PAIB_LUPA			PAIB_LELB			PAIB_LFRM			PAIB_LWRA			PAIB_LWRB			PAIB_LFIN			PAIB_RSHO			PAIB_RUPA			PAIB_RELB			PAIB_RFRM			PAIB_RWRA			PAIB_RWRB			PAIB_RFIN			PAIB_LFWT			PAIB_RFWT			PAIB_LBWT			PAIB_RBWT			PAIB_LTHI			PAIB_LKNE			PAIB_LSHN			PAIB_LANK			PAIB_LHEE			PAIB_LTOE			PAIB_RTHI			PAIB_RKNE			PAIB_RSHN			PAIB_RANK			PAIB_RHEE			PAIB_RTOE		
		X1	Y1	Z1	X2	Y2	Z2	X3	Y3	Z3	X4	Y4	Z4	X5	Y5	Z5	X6	Y6	Z6	X7	Y7	Z7	X8	Y8	Z8	X9	Y9	Z9	X10	Y10	Z10	X11	Y11	Z11	X12	Y12	Z12	X13	Y13	Z13	X14	Y14	Z14	X15	Y15	Z15	X16	Y16	Z16	X17	Y17	Z17	X18	Y18	Z18	X19	Y19	Z19	X20	Y20	Z20	X21	Y21	Z21	X22	Y22	Z22	X23	Y23	Z23	X24	Y24	Z24	X25	Y25	Z25	X26	Y26	Z26	X27	Y27	Z27	X28	Y28	Z28	X29	Y29	Z29	X30	Y30	Z30	X31	Y31	Z31	X32	Y32	Z32	X33	Y33	Z33	X34	Y34	Z34	X35	Y35	Z35	X36	Y36	Z36	X37	Y37	Z37	X38	Y38	Z38	X39	Y39	Z39	X40	Y40	Z40	X41	Y41	Z41
																																																																																																																												
58	2.39	270.64127	1672.41791	-1430.961	84.24403	1674.24011	-1442.22137	286.18084	1643.3168	-1556.20911	83.41536	1655.69382	-1556.41083	246.45489	1401.49506	-1462.46918	124.73736	1399.52972	-1453.28384	245.42931	1481.30829	-1599.44305	92.54072	1480.21774	-1578.25974	155.57523	1332.25906	-1687.39334	195.14072	1331.3591	-1429.34341	193.08199	1227.58041	-1419.26727	369.80145	1420.59418	-1550.67291	425.2615	1199.89548	-1602.76093	435.71995	1126.02707	-1659.69666	468.56586	1009.09554	-1640.47913	439.12399	880.5867	-1558.07556	459.98848	873.67126	-1634.68216	488.51799	830.82016	-1582.90604	-5.89043	1409.57443	-1495.94818	-80.36865	1241.85898	-1535.64362	-106.26883	1125.12794	-1544.39972	-118.09694	988.3934	-1510.96527	-39.74389	883.39523	-1427.71408	-115.99654	869.97696	-1461.74408	-94.41423	834.39224	-1399.30573	287.44869	967.19704	-1492.45392	53.50266	945.45273	-1480.09079	214.32167	1012.82806	-1705.73212	69.74224	1000.81963	-1694.93362	271.86779	726.79718	-1666.53946	293.04596	496.65764	-1508.18024	261.68533	305.92342	-1497.6738	259.24702	121.90542	-1590.75592	203.63691	115.24414	-1639.72366	240.55988	78.22242	-1424.2453	28.95286	687.31766	-1664.30817	10.88485	462.16091	-1577.99789	71.31213	325.88234	-1703.30643	39.00257	269.4931	-1914.89075	102.15479	310.53486	-1935.98724	59.24253	111.03967	-1847.1524
59	2.423	272.58028	1677.02087	-1399.73587	86.55087	1678.38882	-1412.15652	288.77995	1647.36389	-1524.78699	86.01902	1659.59442	-1526.18713	248.01702	1405.96771	-1429.22684	125.96078	1403.8353	-1422.60773	249.76366	1484.93408	-1566.79169	96.71882	1483.76907	-1548.33206	162.05906	1335.47623	-1655.74295	196.21889	1335.94803	-1396.98181	194.14618	1232.28905	-1386.5004	373.01308	1424.19403	-1515.72128	429.88796	1202.19398	-1560.49469	442.38949	1126.6935	-1615.00702	473.06782	1009.98795	-1588.41797	438.72303	886.69502	-1499.9472	462.87178	875.35789	-1575.90271	488.79982	835.45898	-1519.74274	-4.89023	1413.81607	-1468.98392	-79.01234	1247.27112	-1515.9549	-104.90079	1131.04584	-1529.18121	-118.56764	993.03864	-1502.02621	-43.37862	883.86574	-1421.25229	-118.62972	872.4324	-1458.07129	-99.31514	834.15306	-1396.51749	293.56174	970.16983	-1460.78293	59.70624	952.4675	-1446.41235	216.64774	1016.89339	-1673.42834	72.87174	1004.3856	-1661.32339	272.00817	733.6911	-1647.12967	296.81881	495.32223	-1505.26932	264.62288	305.00261	-1496.76147	258.77569	121.63674	-1590.6192	202.44772	115.27164	-1639.02206	240.67253	75.66552	-1423.56369	31.02227	687.78801	-1608.22144	12.18464	472.62012	-1500.53589	75.9024	331.1742	-1617.14432	51.26142	269.51483	-1826.60202	113.63578	305.57047	-1850.74844	68.72297	116.30766	-1745.25635
60	2.457	273.59331	1679.56909	-1368.04214	88.05906	1679.98581	-1381.56876	290.55115	1649.54117	-1492.9509	87.7972	1660.78125	-1495.37521	249.28825	1408.95309	-1395.9108	127.17142	1406.14807	-1391.44897	253.52098	1486.35239	-1534.22104	100.48406	1485.19562	-1518.03467	167.93983	1336.48605	-1623.97827	197.09764	1338.81744	-1364.15665	195.40543	1235.09682	-1353.14621	375.63667	1426.28967	-1480.41321	433.94753	1203.47504	-1518.20923	447.9731	1126.16829	-1570.03479	476.41766	1010.14061	-1535.64743	437.73464	893.12416	-1440.45975	463.8615	876.53076	-1514.79919	487.82761	840.42633	-1455.33218	-4.02055	1416.17249	-1441.48239	-77.53732	1251.18843	-1496.23459	-103.28972	1135.52612	-1513.96484	-118.90511	996.70593	-1492.6683	-47.78447	883.97346	-1412.79739	-121.3077	874.41673	-1453.22327	-104.86898	833.57124	-1392.48398	300.38322	970.00305	-1428.35907	66.17013	958.01834	-1412.76413	219.31023	1018.66554	-1640.3891	76.31665	1005.87532	-1627.79984	271.00109	738.98972	-1625.34637	298.19935	493.57708	-1503.83636	265.96087	303.81159	-1496.85165	256.21082	121.32134	-1590.32211	199.38183	115.49671	-1638.07632	238.85492	72.73885	-1421.14807	28.99571	688.86818	-1555.21835	14.31972	483.48919	-1425.48721	80.45882	331.87294	-1527.78702	59.44144	247.06572	-1731.4389	123.33316	283.20627	-1757.61749	78.61507	110.50186	-1628.23364
61	2.49	274.09382	1679.85352	-1335.74448	88.5854	1678.7265	-1349.80896	291.67843	1649.69589	-1460.58777	88.88213	1659.57932	-1463.78113	250.10229	1409.36371	-1361.64276	127.82902	1405.70831	-1359.72855	256.905	1485.42496	-1500.67474	103.75267	1484.09851	-1487.03918	173.72736	1335.04288	-1591.27487	197.63636	1339.04297	-1330.51727	196.19051	1235.38025	-1319.26575	378.01147	1426.24557	-1444.15497	437.56081	1202.83554	-1475.50797	452.84096	1123.92258	-1524.65271	478.86112	1009.08943	-1482.49786	436.39881	899.29176	-1380.66879	463.79635	877.07581	-1453.59177	485.9446	845.03822	-1390.96146	-2.98072	1415.65887	-1412.88528	-75.40753	1252.29454	-1475.07965	-101.11588	1137.42332	-1497.12158	-119.03288	998.19382	-1481.82877	-52.5199	882.05673	-1402.03018	-124.14018	874.53705	-1446.70547	-110.72752	831.48315	-1386.27533	305.33871	966.59752	-1394.93164	71.09321	960.70526	-1378.67523	222.39962	1016.96938	-1607.49268	79.6146	1004.46777	-1594.60724	269.6047	742.80136	-1601.64185	299.61695	491.28315	-1500.08621	266.87641	302.8771	-1495.94101	254.61376	121.2903	-1590.61554	198.01113	116.16264	-1637.79129	238.53441	71.23066	-1419.99969	24.05704	689.72191	-1504.68124	18.0273	492.54353	-1354.64828	85.49221	329.60606	-1435.60272	65.27691	214.50291	-1624.45419	129.99133	247.19486	-1656.76819	82.51744	102.07266	-1499.66873
